<svg width="537" height="497" viewBox="0 0 537 497" fill="none" xmlns="http://www.w3.org/2000/svg">
<g style="mix-blend-mode:luminosity" filter="url(#filter0_b_7_1789)">
<path d="M500.073 284.593C502.072 284.659 503.865 284.091 505.377 282.829C508.756 280.018 511.589 276.823 512.651 272.359C513.492 268.825 514.459 265.312 515.41 261.808C516.613 257.373 518.686 253.455 522.087 250.268C524.241 248.253 526.395 246.224 528.306 243.996C530.438 241.509 532.526 238.927 534.23 236.138C536.332 232.684 537.277 228.803 536.93 224.701C536.701 221.941 536.281 219.189 536.222 216.429C536.126 211.729 534.023 208.527 529.648 206.823C526.1 205.435 522.589 203.974 519.003 202.713C515.506 201.48 512.401 199.769 509.885 196.965C507.111 193.873 504.042 191.04 501.394 187.845C497.794 183.499 493.53 181.27 487.768 182.126C483.334 182.783 478.864 183.174 474.961 183.624C471.944 181.558 469.472 179.677 466.824 178.098C464.227 176.548 460.878 176.408 458.318 173.781C459.668 172.003 460.811 170.291 462.154 168.764C469.996 159.865 472.047 149.144 471.737 137.781C471.494 128.993 468.845 120.774 465.149 112.842C463.18 108.606 461.129 104.378 459.55 99.9955C455.404 88.4997 448.455 78.9075 439.89 70.4C436.902 67.4338 433.235 65.5892 429.156 64.3201C423.121 62.4459 416.887 62.3795 410.72 61.6785C409.385 61.5236 407.976 61.8778 406.618 62.1213C405.091 62.3943 403.571 62.7706 402.074 63.1764C399.661 63.8331 397.67 63.5748 396.32 61.1251C395.744 60.0848 394.97 59.0149 394.01 58.3508C389.687 55.3182 387.533 50.8984 385.431 46.2499C382.738 40.3028 378.747 35.5141 372.498 32.6365C361.322 27.4788 365.91 28.1872 352.676 28.0986C352.329 28.0986 351.975 28.0544 351.636 28.0986C348.522 28.5118 346.479 27.1542 344.723 24.6012C339.47 16.9939 331.865 14.0056 322.857 13.7326C315.657 13.5112 308.693 14.4925 301.987 17.075C299.737 17.9457 297.708 17.8719 295.473 16.9496C292.765 15.8354 289.962 14.7508 287.099 14.2269C277.081 12.4118 268.007 8.11008 258.94 3.80837C253.835 1.3882 248.465 0.207628 242.895 0.0379203C234.367 -0.22033 225.971 0.842185 217.753 3.17382C211.667 4.9004 206.09 7.60834 201.391 11.8879C199.495 13.6071 197.908 15.6657 196.204 17.5547C195.408 17.5916 194.707 17.7244 194.035 17.6432C189.705 17.1119 186.127 18.7574 183.294 21.7826C180.107 25.1841 176.905 28.652 174.279 32.4815C167.522 42.3319 161.273 52.5144 154.316 62.2615C147.028 72.466 143.169 84.1094 143.309 96.8596C143.324 97.9442 142.977 99.0363 142.734 100.512C141.406 99.6856 140.447 99.2503 139.695 98.5862C137.341 96.498 134.597 95.9373 131.528 95.9004C125.279 95.8266 120.101 98.3722 115.401 102.135C111.587 105.19 107.36 107.426 102.971 109.565C98.4336 111.779 94.3171 112.104 89.6695 110.067C85.1398 108.082 80.5291 108.562 76.2503 111.211C74.6273 112.214 73.0485 113.284 71.396 114.214C69.4411 115.313 67.4787 116.464 65.4057 117.298C63.3327 118.132 61.3556 117.837 59.8285 115.874C58.9875 114.79 58.0137 113.757 56.9514 112.893C55.2841 111.543 53.8234 111.654 52.348 113.174C51.6324 113.911 50.9684 114.767 50.5184 115.682C47.3462 122.227 44.3879 128.794 42.9715 136.062C41.0977 145.676 40.4854 155.32 41.1051 165.023C42.0346 179.433 44.0338 193.652 51.3668 206.505C51.6103 206.933 51.6619 207.472 51.9275 208.372C46.0773 211.449 40.9354 214.909 36.6713 219.573C32.4663 224.177 29.3088 229.216 29.5818 235.769C29.6777 238.012 28.8072 239.812 27.1473 241.258C26.1071 242.166 25.0153 243.029 23.9898 243.959C15.3068 251.773 7.67875 260.428 2.19745 270.869C-0.598522 276.189 -0.598521 281.398 1.47449 286.887C4.03439 293.654 8.45336 299.195 12.8354 304.78C15.0781 307.636 17.4093 310.418 19.5635 313.34C22.1308 316.822 24.4472 320.497 27.0735 323.935C28.5268 325.839 30.1941 327.713 32.1269 329.093C34.0008 330.428 34.886 332.089 35.3803 334.155C36.3098 338.014 37.291 341.865 38.1468 345.746C39.1722 350.387 41.6362 353.671 46.4904 354.593C48.8512 355.036 51.2783 355.161 53.6833 355.346C56.8038 355.589 57.5637 356.047 57.608 358.924C57.7334 366.052 60.5662 372.029 65.0737 377.312C70.4665 383.635 75.9773 389.855 81.4291 396.127C86.1358 401.536 91.1228 406.568 98.4853 408.191C100.049 408.538 100.979 409.475 101.326 410.877C102.108 414.057 103.148 417.252 103.325 420.477C103.605 425.634 105.117 430.261 107.397 434.828C110.252 440.546 112.731 446.457 115.438 452.256C116.456 454.44 117.364 456.764 118.817 458.646C123.162 464.254 127.692 469.714 132.28 475.122C133.372 476.414 134.87 477.439 136.345 478.325C142.306 481.925 147.64 486.286 152.76 490.994C157.112 494.993 162.35 497.014 168.407 496.889C176.153 496.727 183.42 494.816 190.487 491.746C196.676 489.06 202.932 486.515 209.262 484.205C216.765 481.468 224.54 481.534 232.338 482.7C238.402 483.608 244.481 483.763 250.346 481.933C256.609 479.977 262.843 477.808 268.87 475.233C274.742 472.724 278.726 468.297 279.84 461.723C280.069 460.358 280.408 459.015 280.696 457.657C281.419 454.307 281.891 453.916 285.203 454.145C286.059 454.204 286.915 454.366 287.763 454.507C293.968 455.525 300.157 455.451 306.376 454.551C315.435 453.245 324.517 452.042 333.598 450.876C341.47 449.865 349.452 449.674 357.205 447.726C360.075 447.003 362.923 446.353 365.129 444.154C365.719 443.572 366.523 442.959 367.297 442.848C372.078 442.155 376.659 440.377 381.609 440.598C387.474 440.856 393.339 440.561 399.219 441.387C405.017 442.206 410.941 442.133 416.799 442.546C419.897 442.767 422.974 443.372 426.079 443.483C434.039 443.771 442.007 444.073 449.9 442.465C454.969 441.432 460.17 441.173 465.061 439.159C477.831 433.891 486.248 424.328 491.508 411.954C493.308 407.719 495.558 404.48 499.571 402.303C504.581 399.588 508.136 395.419 511.095 390.593C513.92 385.989 516.377 381.267 517.956 376.087C519.121 372.28 521.069 369.159 525.407 368.332C526.063 368.207 526.683 367.786 527.273 367.439C531.471 364.968 532.585 361.942 530.895 357.353C530.423 356.062 529.781 354.8 529.044 353.641C527.28 350.867 525.598 348.004 523.533 345.451C519.719 340.744 518.354 335.468 518.546 329.491C519.047 314.387 513.131 302.264 501.15 293.056C499.24 291.588 497.439 289.942 495.706 288.26C494.607 287.197 494.43 285.869 495.366 284.593C496.982 284.593 498.517 284.556 500.051 284.6L500.073 284.593ZM407.533 68.1717C414.504 67.7142 421.365 68.4373 428.056 70.4443C431.251 71.4035 434.091 73.0637 436.526 75.3584C444.456 82.8255 450.535 91.5544 454.629 101.685C456.444 106.179 458.392 110.628 460.531 114.974C466.3 126.713 468.373 138.851 465.518 151.793C464.596 155.984 462.988 159.659 460.317 162.942C458.133 165.628 455.861 168.262 453.892 171.103C451.081 175.146 451.907 178.127 456.333 180.356C458.805 181.603 461.387 182.621 463.925 183.728C467.665 185.366 469.325 187.919 469.044 192.279C468.285 204.048 466.787 215.714 464.987 227.342C464.566 230.036 463.556 232.684 462.523 235.237C461.025 238.927 459.476 242.623 457.536 246.091C455.522 249.699 453.508 253.522 450.638 256.384C443.165 263.837 435.589 271.282 427.348 277.841C418.901 284.571 409.023 288.88 398.186 290.569C396.652 290.805 395.102 291.034 393.597 291.411C391.583 291.912 390.683 292.997 390.595 295.085C390.536 296.457 390.809 297.845 390.816 299.224C390.905 311.421 386.168 321.404 376.888 329.24C376.017 329.978 374.933 330.451 372.978 331.639C376.63 323.249 379.972 315.856 380.149 307.607C380.171 306.47 379.913 305.327 379.057 304.043C378.769 304.736 378.319 305.408 378.231 306.131C377.559 311.34 375.811 316.225 373.738 320.999C372.078 324.806 370.307 328.569 368.544 332.332C367.806 333.896 367.054 335.416 365.224 336.125C362.333 337.246 359.5 338.523 356.121 339.962C356.165 338.065 357.087 337.032 357.707 335.948C362.001 328.48 364.346 320.364 365.8 311.952C366.08 310.344 366.397 308.632 365.003 306.448C364.383 308.049 363.874 309.06 363.594 310.137C361.337 318.711 358.142 326.931 354.004 334.76C352.801 337.04 351.267 339.172 349.703 341.231C348.176 343.245 346.125 344.47 343.004 344.16C343.181 343.149 343.299 342.205 343.521 341.282C344.502 337.261 345.63 333.277 346.486 329.233C347.438 324.717 346.25 320.29 345.49 315.87C345.387 315.28 344.848 314.771 344.221 313.745C342.237 317.442 343.462 320.954 343.034 324.253C342.591 327.676 342.2 331.115 341.521 334.494C340.843 337.873 339.825 341.179 338.888 344.765C336.564 345.614 334.269 346.801 331.252 346.167C331.252 345.193 331.127 344.212 331.274 343.282C332.639 334.442 330.618 326.075 327.814 317.818C327.446 316.726 327.025 315.435 325.041 315.723C325.867 320.792 326.509 325.883 327.564 330.886C328.633 335.984 327.549 340.84 326.782 345.68C324.927 346.295 323.044 346.388 321.131 345.96C319.913 340.995 318.947 335.925 317.398 331.033C315.863 326.193 314.314 321.249 310.589 317.405C311.039 322.032 313.06 326.178 314.299 330.546C315.568 335.033 316.52 339.57 316.586 344.47C313.377 345.038 310.766 343.57 308.132 342.95C302.724 333.291 299.257 329.13 293.982 326.474C297.273 331.993 301.64 335.955 304.06 341.755C297.789 341.105 292.736 338.56 287.734 335.911C285.808 334.892 285.661 334.59 283.846 331.52C288.877 325.588 292.883 318.645 299.441 313.834C302.835 311.347 306.457 309.444 310.478 308.212C313.207 307.378 315.937 307.215 318.674 307.813C327.217 309.68 335.885 309.687 344.516 309.245C351.783 308.876 358.924 307.274 365.726 304.618C368.271 303.622 370.779 302.242 372.926 300.553C377.685 296.812 382.288 292.849 386.796 288.806C390.905 285.117 391.465 281.029 388.979 276.166C387.895 274.041 386.412 272.44 384.029 271.931C376.091 270.249 368.662 266.788 360.429 265.977C355.811 265.519 351.466 265.563 347.165 267.032C343.572 268.257 340.053 269.732 336.579 271.274C333.052 272.831 329.489 273.99 324.959 273.392C325.97 272.477 326.612 271.761 327.372 271.23C334.262 266.375 341.861 263.261 350.145 261.594C364.59 258.679 378.585 254.163 392.387 249.057C394.106 248.423 394.084 248.364 396.268 246.025C393.937 246.718 392.196 247.287 390.425 247.759C376.548 251.441 362.701 255.204 348.781 258.709C343.203 260.111 337.833 261.889 332.779 264.656C331.909 265.128 330.957 265.445 329.681 265.991C329.364 264.368 329.105 263.077 328.855 261.8C330.655 259.97 332.846 259.343 334.948 258.642C341.839 256.348 348.81 254.274 355.663 251.876C360.068 250.334 364.487 248.689 368.596 246.527C376.858 242.166 384.929 237.444 393.044 232.81C394.342 232.072 395.479 231.046 396.467 229.792C391.465 231.164 387.364 234.308 382.79 236.477C378.098 238.705 373.583 241.31 368.861 243.457C364.302 245.531 359.632 247.375 354.918 249.065C350.086 250.799 345.136 252.223 339.714 253.957C340.835 250.076 342.724 247.973 346.199 246.903C353.856 244.542 360.429 239.997 367.224 235.414C366.53 235.414 365.741 235.193 365.165 235.451C360.894 237.34 356.667 239.333 352.41 241.266C349.282 242.682 346.139 244.047 342.731 245.56C342.156 243.907 341.721 242.668 341.123 240.971C348.884 237.886 356.49 235.06 363.926 231.858C371.362 228.648 378.636 225.055 386.552 221.366C384.774 220.222 383.542 220.746 382.384 221.196C376.253 223.572 370.116 225.926 364.022 228.412C354.616 232.249 345.254 236.182 335.273 240.321C336.704 237.554 338.681 236.234 340.636 234.964C350.603 228.508 361.307 223.579 372.934 221.174C387.518 218.156 399.064 210.364 408.61 199.392C414.925 192.124 419.314 183.55 421.933 174.342C423.379 169.266 423.623 163.746 423.741 158.412C423.851 153.254 425.201 148.606 427.046 143.861C429.554 137.42 431.782 130.838 433.56 124.16C436.998 111.233 433.036 100.32 422.605 92.3587C416.238 87.4962 410.676 82.4861 407.961 74.746C407.297 72.8571 405.821 71.2486 404.486 69.1457C405.703 68.7546 406.603 68.275 407.533 68.2086V68.1717ZM456.51 327.152C458.576 330.62 458.561 331.048 455.987 333.778C455.16 334.656 454.268 335.512 453.279 336.198C450.955 337.814 449.111 339.652 448.226 342.529C447.311 345.518 444.84 347.362 441.992 348.388C439.403 349.325 436.703 350.033 433.995 350.535C428.492 351.561 423.21 353.11 418.599 356.408C415.53 358.607 411.996 359.515 408.381 359.817C403.571 360.216 398.916 361.75 393.988 361.352C391.517 361.153 389.805 362.481 389.636 364.916C389.304 369.668 386.235 371.852 382.554 373.682C381.004 374.449 379.44 375.238 377.795 375.74C371.34 377.71 364.87 379.629 358.371 381.414C356.726 381.864 354.933 381.975 353.222 381.909C347.873 381.702 342.525 381.333 337.176 381.038C335.797 380.964 334.402 380.854 333.023 380.927C324.096 381.407 315.457 379.548 306.863 377.541C303.528 376.758 300.342 375.371 296.815 374.161C296.815 372.191 296.978 370.487 296.778 368.827C296.358 365.27 294.632 362.621 290.95 361.714C290.36 361.566 289.681 361.802 289.172 361.846C288.199 363.839 289.327 365.181 290.072 366.421C291.71 369.144 291.806 371.837 291.149 374.892C290.353 378.596 290.205 382.433 289.571 386.181C288.936 389.922 288.125 393.641 287.232 397.33C286.967 398.422 286.155 399.381 285.351 400.842C283.831 399.721 282.54 398.924 281.441 397.92C279.648 396.282 277.944 394.556 276.277 392.792C273.857 390.239 271.098 388.203 267.852 386.845C263.979 385.222 260.563 382.905 257.376 380.182C255.274 378.389 252.928 376.877 250.796 375.106C248.937 373.564 247.07 371.977 245.477 370.169C242.615 366.93 242.659 366.141 244.983 362.466C245.447 361.736 245.905 361.005 246.355 360.26C248.863 356.106 248.649 352.055 245.905 348.1C243.928 345.252 242.032 342.345 239.922 339.607C237.864 336.936 237.237 334.088 238.144 330.074C240.165 334.007 240.866 337.991 244.097 340.449C247.402 342.965 251.194 343.902 255.48 343.865C255.318 346.101 255.178 347.997 255.038 349.9C255.303 349.974 255.569 350.048 255.842 350.122C256.152 349.605 256.609 349.133 256.757 348.572C257.731 344.839 259.833 342.795 264.237 343.754C264.237 344.654 264.304 345.776 264.223 346.883C264.031 349.421 263.765 351.959 263.927 354.578C265.455 353.265 265.462 351.413 265.875 349.768C267.978 341.474 266.982 342.057 276.528 338.294C276.852 345.444 273.828 352.616 276.963 360.533C278.254 351.959 279.427 344.182 280.652 336.058C284.48 338.257 287.859 340.242 291.282 342.153C293.016 343.12 293.444 344.713 293.717 346.484C294.108 349.022 294.573 351.561 295.768 354.21C296.033 353.582 296.564 352.933 296.513 352.335C296.299 349.93 296.114 347.561 296.786 344.691C300.563 345.606 304.06 346.396 307.52 347.325C309.047 347.731 309.578 349 309.696 350.52C309.902 353.11 310.109 355.7 310.478 358.268C310.714 359.906 310.884 361.647 312.455 363.359C313.525 358.482 311.489 353.914 313.399 349.14C318.777 349.945 324.155 350.749 329.6 351.568C331.414 353.996 331.119 357.655 334.542 359.935C334.181 357.323 333.886 355.324 333.635 353.324C333.428 351.686 334.21 350.594 335.767 350.262C338.113 349.76 340.488 349.428 342.997 348.993C344.679 351.302 346.272 353.486 348.227 356.172C349.437 353.066 346.774 351.17 347.549 348.454C350.293 347.355 353.288 346.16 356.46 344.89C360.252 347.879 361.691 352.837 365.837 356.408C365.984 353.273 364.627 351.42 363.734 349.45C362.878 347.569 361.897 345.739 360.813 343.577C364.708 340.567 369.717 339.895 373.354 336.907C378.157 338.685 380.444 342.758 384.014 346.573C383.793 341.15 380.097 338.589 377.493 335.106C380.466 332.413 383.358 329.794 386.434 327.012C390.403 329.049 394.224 331.011 398.038 332.974C399.079 332.022 398.267 331.321 397.699 330.864C394.903 328.576 392.041 326.378 388.979 323.972C389.555 322.105 390.418 320.335 392.122 318.962C398.208 320.069 400.975 325.175 404.826 328.99C403.925 322.43 399.58 318.564 394.106 315.347C394.534 312.329 395.088 309.37 396.814 306.455C401.624 308.462 405.357 311.857 409.798 314.66C408.758 310.772 405.762 308.012 397.124 302.766V297.845C399.787 296.664 402.302 296.812 404.803 297.653C409.067 299.077 413.309 300.582 417.566 302.021C418.658 302.39 419.772 302.663 421.919 303.275C418.311 298.317 413.147 297.823 408.883 294.849C415.456 291.138 422.029 289.728 428.698 288.791C432.97 288.186 437.285 287.854 441.594 287.515C444.39 287.293 447.09 287.743 449.709 288.887C452.401 290.068 455.227 290.931 457.92 292.111C461.593 293.72 464.751 295.948 467.51 299.025C469.893 301.681 473.072 303.637 475.957 305.843C477.167 306.765 478.502 307.525 479.808 308.374C479.373 311.303 477.307 312.366 475.33 313.273C472.822 314.424 470.136 315.177 467.576 316.217C464.375 317.516 461.092 318.704 458.089 320.371C454.651 322.275 454.474 323.736 456.503 327.138L456.51 327.152ZM151.078 313.281C161.708 308.647 172.287 303.91 182.962 299.387C187.92 297.284 193.217 296.428 198.772 296.457C197.658 297.003 196.566 297.609 195.43 298.095C182.416 303.688 170.686 311.237 160.447 321.058C158.079 323.33 155.593 325.492 153.202 327.75C152.634 328.289 152.236 329.012 152.199 330.251C153.202 329.816 154.206 329.388 155.135 328.99C155.12 329.1 155.202 329.491 155.039 329.668C150.591 334.553 147.95 340.264 146.932 346.779C146.755 347.93 146.246 349.03 145.818 350.365C144.077 350.07 142.564 349.9 141.089 349.539C137.526 348.676 133.948 348.226 130.281 348.639C127.721 348.934 125.582 348.085 123.656 346.329C118.138 341.297 111.941 337.202 105.656 333.181C99.3189 329.122 92.7827 325.728 85.3095 324.407C84.9997 324.356 84.7267 324.068 84.2029 323.743C84.0923 317.184 89.1309 313.723 93.336 309.754C91.7499 308.396 90.4883 309.156 89.2859 309.665C88.1719 310.137 87.1391 310.787 86.0546 311.318C83.1701 312.727 82.3291 312.41 80.7061 309.613C79.5848 307.673 78.3602 305.784 77.106 303.925C73.7125 298.885 69.0796 295.956 62.9122 295.535C58.2498 295.218 55.1587 292.532 53.6611 288.311C51.1234 281.147 48.7479 273.909 47.8405 266.294C47.5233 263.63 48.0913 261.144 49.0208 258.679C51.507 252.038 53.8013 245.317 56.4719 238.75C58.0949 234.758 60.1826 230.936 62.2925 227.165C62.9934 225.918 64.395 225.055 65.2287 224.251C72.4952 228.951 79.2971 233.349 86.3423 237.901C78.8323 239.738 70.9387 240.152 64.0483 244.099C75.1216 243.088 85.9882 240.115 97.268 241.074C97.5631 243.369 96.368 244.04 94.7745 244.652C91.5507 245.892 88.3637 247.257 85.2357 248.725C83.8931 249.353 82.7275 250.371 81.6504 251.596C86.8366 251.301 91.3662 248.585 96.6483 247.729C97.0836 250.172 97.4746 252.334 97.8803 254.636C94.0737 257.417 89.19 258.244 85.162 262.368C90.6875 261.741 94.5016 258.635 99.3484 258.118C101.702 261.158 104.092 264.25 106.704 267.637C102.484 269.54 98.6328 271.282 94.7819 273.016C94.8483 273.281 94.9147 273.554 94.9811 273.82C95.8516 273.82 96.7664 274.004 97.5779 273.79C100.58 272.986 103.539 271.99 106.541 271.193C108.799 270.603 110.835 270.802 112.834 272.477C115.158 274.425 117.865 275.908 120.742 277.812C117.201 279.966 113.151 280.439 110.016 284.268C111.624 283.877 112.377 283.744 113.107 283.515C116.08 282.593 118.994 281.413 122.019 280.771C123.974 280.357 126.253 280.217 128.105 280.822C134.08 282.778 140.122 283.855 147.669 283.471C139.997 286.386 132.974 287.714 127.301 292.429C128.216 292.34 129.16 292.362 130.045 292.156C141.487 289.485 152.863 286.482 164.386 284.194C170.443 282.992 176.743 282.637 182.94 282.652C186.828 282.66 190.723 284.032 194.596 284.873C195.002 284.962 195.297 285.574 195.961 286.282C193.217 287.847 190.421 288.068 187.558 288.12C178.624 288.275 169.963 290.038 161.863 293.713C154.781 296.922 147.994 300.781 141.141 304.471C138.558 305.865 136.109 307.533 133.682 309.193C132.303 310.137 131.1 311.318 130.281 313.185C131.292 312.779 132.362 312.491 133.299 311.952C143.346 306.116 153.719 300.958 164.49 296.598C171.446 293.786 178.698 292.289 186.156 291.72C189.425 291.47 192.678 291.056 195.953 290.924C196.772 290.887 197.628 291.639 199.465 292.488C193.939 293.624 189.41 294.244 185.072 295.528C180.609 296.849 176.278 298.686 172 300.538C167.713 302.397 163.516 304.471 159.362 306.603C155.29 308.684 151.122 310.646 147.987 314.402C149.027 314.026 150.089 313.709 151.1 313.273L151.078 313.281ZM199.436 283.154C198.764 280.475 197.709 277.9 196.942 275.244C195.607 270.603 194.367 265.932 193.076 261.276C191.97 257.285 190.826 253.3 189.727 249.301C189.513 248.519 189.41 247.715 189.019 245.737C191.217 248.091 192.685 249.508 193.984 251.064C198.86 256.923 203.316 263.033 206.835 269.865C209.122 274.3 211.999 278.468 214.979 282.482C218.011 286.57 222.194 289.433 226.827 291.506C228.686 292.34 230.745 292.709 232.581 293.255C230.619 293.757 228.517 294.303 225.293 295.137C230.339 296.723 234.101 295.506 237.901 295.033C241.766 294.554 245.647 294.229 249.579 294.17C243.485 296.716 237.155 298.147 230.597 298.501C224.238 298.841 218.034 297.675 211.888 295.934C213.873 298.546 216.75 299.254 219.539 299.8C222.91 300.464 226.37 300.73 229.808 301.017C236.285 301.556 242.504 300.029 248.693 298.405C250.161 298.022 251.615 297.564 253.304 297.402C247.196 302.478 243.832 309.473 240.003 315.789C236.978 316.815 234.492 315.664 232.139 314.786C222.246 311.089 213.829 305.12 206.776 297.299C203.132 293.263 200.786 288.466 199.45 283.161L199.436 283.154ZM194.736 230.213C189.793 232.707 184.91 235.326 179.93 237.746C178.314 238.528 176.551 239.901 174.626 238.388C172.656 236.839 173.837 234.957 174.227 233.171C174.412 232.323 174.567 231.467 174.803 230.641C176.751 223.933 179.546 221.631 186.592 221.196C192.648 220.82 198.72 221.107 204.666 222.258C207.137 222.738 209.601 223.911 211.763 225.262C215.82 227.8 219.966 229.748 224.865 229.467C226.82 229.357 228.133 230.39 229.284 231.755C232.131 235.134 234.05 239.008 234.861 243.332C236.3 250.976 237.598 258.657 238.911 266.323C239.509 269.813 239.988 273.326 240.527 276.823C234.19 269.481 230.464 260.767 225.344 252.607C225.462 253.647 225.396 254.746 225.735 255.713C228.576 263.925 232.205 271.761 237.104 278.97C237.841 280.062 238.498 281.213 239.686 283.139C238.048 282.704 237.148 282.704 236.565 282.276C233.518 280.025 230.236 277.974 227.624 275.288C221.471 268.972 215.407 262.531 210.9 254.835C210.87 254.776 210.811 254.732 210.752 254.695C210.56 254.584 210.258 254.532 210.037 254.436C210.074 256.953 210.9 259.21 213.6 263.18C214.677 264.766 216.056 266.633 217.812 268.898C218.69 270.035 219.657 271.267 220.726 272.617C225.182 278.24 230.103 283.213 237.082 286.113C233.334 287.647 230.899 287.67 227.469 286.393C222.202 284.43 218.454 280.645 215.4 276.137C213.268 272.986 211.342 269.688 209.454 266.382C203.545 256.06 196.293 246.903 186.658 239.775C186.267 239.487 186.009 239 185.426 238.277C188.989 235.09 194.124 234.131 197.901 229.394C196.138 229.844 195.371 229.903 194.729 230.227L194.736 230.213ZM184.135 243.819C182.438 242.749 181.524 242.166 180.122 241.273C182.254 240.757 183.383 240.926 184.135 243.819ZM170.679 231.364C170.207 225.911 172.863 222.539 176.028 219.617C174.331 223.343 172.641 227.062 170.679 231.364ZM156.854 128.964C154.272 125.356 152.538 121.091 150.775 116.974C149.241 113.388 149.256 109.529 150.178 105.736C151.115 101.87 152.11 98.0107 153.173 94.1738C154.456 89.5548 157.238 85.8065 160.255 82.191C168.031 72.8645 176.374 64.084 185.22 55.7609C189.38 51.8429 193.615 47.9691 197.444 43.7486C199.981 40.9595 201.87 37.5801 204.039 34.459C205.227 32.7619 206.23 30.8951 207.617 29.3899C209.742 27.0878 211.933 26.8443 214.625 28.4012C216.27 29.353 217.798 30.5114 219.361 31.6035C223.773 34.6582 228.14 37.7793 232.589 40.775C236.337 43.2985 240.409 45.0546 244.739 46.4861C250.434 48.3676 256.196 50.5074 260.172 55.9897C259.066 56.7201 258.085 57.3399 257.14 58.004C255.023 59.5019 252.78 60.8521 250.848 62.564C243.714 68.9022 237.082 75.7126 231.283 83.3347C227.292 88.5734 222.969 93.5614 220.387 99.7151C219.583 101.626 218.816 103.567 218.218 105.544C217.215 108.887 218.189 111.809 220.866 113.911C222.888 115.498 225.123 116.951 227.484 117.948C235.805 121.467 242.873 126.536 248.575 134.203C243.448 130.55 238.742 127.053 233.887 123.762C222.128 115.8 222.098 115.837 218.712 116.273C224.046 119.814 229.387 123.275 234.647 126.868C240.519 130.875 246.038 135.287 251.054 140.386C254.197 143.581 256.476 147.056 257.745 151.291C258.232 152.9 258.793 154.486 258.719 156.456C258.033 155.822 257.303 155.232 256.676 154.545C248.546 145.75 239.634 137.803 230.597 129.975C230.081 129.532 229.424 129.252 228.826 128.905C227.609 127.318 226.178 126.049 223.463 125.068C224.799 127.65 226.141 128.986 228.059 129.753C232.264 133.871 236.491 137.958 240.66 142.12C246.045 147.499 251.386 152.929 256.735 158.345C257.096 158.714 257.362 159.179 257.708 159.563C261.943 164.285 263.832 169.546 261.249 176.179C260.519 175.427 259.826 174.822 259.265 174.106C254.58 168.1 250.066 161.909 243.883 157.305C240.143 154.516 236.373 151.682 232.301 149.432C223.515 144.584 214.529 140.091 205.603 135.509C204.607 134.999 203.434 134.844 202.003 135.346C203.412 136.15 204.821 136.955 206.23 137.766C215.695 143.182 225.271 148.421 234.595 154.073C243.773 159.644 253.857 170.129 258.874 178.754C257.753 178.452 257.052 178.341 256.417 178.076C255.458 177.677 254.595 176.939 253.614 176.74C246.207 175.205 241.419 169.782 236.159 165.082C230.575 160.087 224.474 155.977 217.495 153.047C217.193 154.309 217.281 155.645 216.654 156.324C212.464 160.854 212.073 166.27 212.847 171.914C213.342 175.537 213.659 179.042 212.833 182.717C212.11 185.934 212.464 189.291 213.829 192.397C214.618 194.198 214.898 195.939 214.5 197.931C212.759 206.579 213.268 209.198 217.901 216.931C213.556 216.85 209.955 214.865 206.164 213.596C204.496 213.035 203.751 211.626 203.795 209.936C203.832 208.387 204.061 206.845 204.297 205.31C205.264 199.156 206.378 193.025 207.219 186.856C207.565 184.303 207.418 181.669 207.418 179.072C207.418 178.437 207.108 177.803 206.953 177.205C205.433 177.028 205.514 178.031 205.359 178.828C203.818 186.989 202.283 195.157 200.719 203.31C200.527 204.299 200.158 205.251 199.827 206.38C192.855 201.812 185.928 197.577 179.333 192.884C169.255 185.712 163.191 176.017 161.738 163.518C161.17 158.663 160.749 153.874 161.664 149.048C163.073 141.625 161.221 135.147 156.817 128.993L156.854 128.964ZM354.159 131.664C354.077 122.146 353.967 112.635 353.871 102.777C354.564 103.987 355.206 105.057 355.811 106.149C358.917 111.757 361.919 117.416 365.129 122.965C369.459 130.462 371.952 138.526 372.425 147.115C372.771 153.468 371.075 159.474 367.718 164.927C366.265 167.288 364.575 169.502 363.137 171.863C361.698 174.224 360.289 176.629 359.146 179.138C357.39 182.997 356.49 187.041 357.803 191.261C358.607 193.858 357.95 195.851 355.988 197.791C351.923 201.805 348.183 206.144 344.111 210.158C339.935 214.275 335.524 218.156 331.164 222.192C329.482 221.506 328.073 220.93 326.486 220.281C328.663 216.12 330.876 212.083 332.905 207.951C334.889 203.908 336.778 199.813 338.511 195.666C340.275 191.453 342.348 187.314 342.547 182.577C336.667 194.685 331.046 206.874 324.347 218.768C322.23 213.795 322.414 213.854 323.727 209.553C327.003 198.787 330.101 187.97 333.259 177.168C333.628 175.899 333.982 174.615 332.706 172.667C328.25 186.044 324 198.802 319.773 211.493C317.848 212.548 316.107 212.829 314.159 211.427C318.644 192.479 324.259 173.671 322.613 153.785C320.998 163.459 319.596 173.176 317.7 182.79C315.797 192.427 314.594 202.248 310.817 212.762C309.467 208.468 308.353 205.384 309.275 201.99C312.057 191.755 313.185 181.241 314.646 170.786C315.089 167.598 314.712 164.292 314.712 161.046C314.513 161.075 314.314 161.105 314.122 161.142C312.012 172.32 309.91 183.499 307.763 194.67C307.741 194.795 307.615 194.906 307.461 195.017C307.306 195.12 307.129 195.223 306.996 195.327C305.742 194.913 304.82 194.574 304.148 194.227C303.75 194.013 303.44 193.799 303.211 193.556C303.034 193.371 302.909 193.172 302.82 192.943C302.732 192.722 302.68 192.471 302.665 192.191C302.651 191.91 302.665 191.593 302.71 191.239C302.776 190.7 302.901 190.073 303.071 189.313C304.532 182.724 305.904 176.113 307.261 169.502C307.49 168.365 307.438 167.177 307.556 165.48C305.609 166.772 305.609 168.373 305.262 169.775C303.506 176.821 301.773 183.868 300.076 190.715C297.664 192.021 295.694 191.357 293.171 191.025C294.521 185.093 296.159 179.478 297 173.744C297.878 167.768 298.195 161.688 298.394 155.637C298.586 149.808 298.66 143.95 297.907 137.22C296.542 140.659 296.314 143.345 296.218 146.089C295.738 159.969 294.159 173.707 290.766 187.21C290.39 188.715 289.925 190.191 289.423 191.933C287.645 192.486 285.882 193.039 283.536 193.777C284.421 187.896 285.499 182.562 285.971 177.168C286.465 171.486 286.694 165.746 286.48 160.057C286.273 154.604 285.786 149.115 284.178 143.249C282.437 144.717 282.732 146.126 282.85 147.388C284.171 161.629 283.02 175.737 280.519 189.771C280.401 190.449 280.231 191.128 280.113 191.807C279.648 194.552 278.084 196.087 274.934 196.227C274.558 195.688 273.754 195.054 273.673 194.338C273.223 190.228 272.544 186.192 272.802 181.957C273.297 173.848 273.201 165.687 273.127 157.556C273.083 152.192 272.662 146.835 272.374 141.478C272.323 140.474 272.131 139.486 271.865 137.353C270.943 139.087 270.213 139.84 270.161 140.637C269.711 147.89 269.246 155.143 269.04 162.403C268.804 170.653 268.833 178.902 268.737 187.719C265.912 185.602 264.621 183.506 265.3 180.4C265.705 178.54 265.632 176.548 266.266 174.785C267.587 171.11 266.805 167.509 265.949 164.042C263.618 154.604 260.652 145.329 255.576 136.977C249.807 127.466 242.076 119.888 232.028 114.856C230.169 113.926 228.251 113.1 226.451 112.067C223.249 110.215 222.6 108.754 223.81 105.168C225.359 100.556 227.572 96.2398 230.449 92.2849C237.303 82.8624 244.99 74.1778 253.666 66.4156C255.96 64.357 258.564 62.5123 261.301 61.1104C265.344 59.0518 269.637 59.0665 273.806 61.1104C274.58 61.4941 275.377 61.8409 276.122 62.2836C285.071 67.5445 294.927 68.976 305.063 69.094C311.99 69.1752 318.925 69.0792 325.764 70.3041C328.98 70.8796 332.123 71.9052 335.251 72.8866C337.279 73.5212 338.799 74.9305 340.061 76.6792C344.509 82.8477 347.401 89.636 348.117 97.2285C348.817 104.637 349.245 112.067 349.961 119.475C350.558 125.643 351.399 131.79 352.277 139.205C353.332 137.545 353.937 136.999 354.011 136.387C354.195 134.844 354.173 133.273 354.159 131.716V131.664ZM325.218 279.679C326.693 279.361 327.777 279.228 328.796 278.896C332.565 277.672 336.401 276.594 340.038 275.052C344.546 273.149 349.194 271.732 354.004 271.333C357.213 271.068 360.547 271.717 363.756 272.315C366.796 272.876 369.747 273.923 372.742 274.728C375.575 275.488 378.444 276.129 381.248 276.978C385.615 278.299 386.641 281.626 383.38 284.622C378.415 289.175 373.354 293.676 367.976 297.734C362.893 301.571 356.615 302.729 350.477 303.747C339.463 305.585 328.449 305.039 317.442 303.379C315.118 303.032 312.603 303.135 310.301 303.629C301.5 305.511 294.484 310.344 288.826 317.265C285.108 321.81 281.603 326.577 277.516 330.775C270.914 337.556 262.71 340.736 253.135 340.124C247.432 339.762 244.304 337.084 242.976 331.557C242.098 327.898 242.209 324.282 243.374 320.807C246.37 311.864 251.733 304.692 260.025 299.793C258.594 306.359 256.196 312.55 256.89 319.25C256.985 320.187 257.583 321.072 258.129 322.43C260.305 319.648 259.228 316.653 260.128 314.129C261.058 311.532 261.84 308.883 262.666 306.33C266.967 305.85 268.664 300.796 273.415 301.128C274.307 303.984 273.289 307.378 275.119 310.912C276.956 307.252 275.938 303.681 277.133 299.948C279.825 299.025 282.857 297.992 285.794 296.989C288.346 298.819 289.032 302.316 292.831 302.921C291.821 300.582 290.98 298.634 290.028 296.443C293.599 294.878 296.845 293.277 300.231 292.089C301.367 291.691 302.879 292.384 304.222 292.554C306.044 292.79 307.66 294.296 309.895 293.462C309.283 291.123 306.332 291.536 305.424 289.345C307.077 288.031 308.722 286.526 310.566 285.338C311.319 284.851 312.536 284.829 313.48 284.976C315.694 285.316 317.855 285.98 320.068 286.334C321.308 286.533 322.599 286.371 324.022 285.463C320.843 284.298 317.656 283.132 314.203 281.863C316.003 280.254 317.781 280.166 319.795 280.815C322.259 281.612 324.768 282.298 327.268 282.955C328.058 283.161 328.906 283.132 329.954 282.608C328.582 281.752 327.209 280.903 325.24 279.686L325.218 279.679ZM243.751 277.03C242.947 274.403 242.666 271.614 242.165 268.891C240.689 260.893 239.295 252.88 237.723 244.903C236.742 239.915 234.795 235.319 231.541 231.334C231.246 230.965 231.128 230.449 230.693 229.475C234.234 229.475 237.465 229.29 240.674 229.512C248.929 230.08 256.388 228.036 263.323 223.528C267.085 221.085 271.15 219.093 275.104 216.946C281.352 213.552 287.453 209.958 292.765 205.155C294.248 203.812 295.878 202.469 299.183 202.469C298.047 204.026 297.405 204.808 296.867 205.664C291.4 214.312 290.913 223.166 295.93 232.175C298.032 235.953 300.194 239.701 302.437 243.398C307.365 251.522 306.612 259.417 301.965 267.401C299.449 271.717 296.491 275.384 291.74 277.281C291.474 277.384 291.113 277.266 290.301 277.221C295.657 267.401 296.941 256.93 296.166 246.128C296.048 244.468 295.591 242.771 293.606 240.926C293.606 245.508 293.909 249.39 293.525 253.204C293.127 257.144 292.19 261.048 291.268 264.921C290.36 268.751 289.571 272.691 286.214 276.469C286.185 274.89 286.067 274.019 286.162 273.171C287.24 264.11 286.487 255.204 283.912 246.46C283.595 245.39 282.939 244.424 281.721 243.619C281.788 244.557 281.766 245.508 281.943 246.423C283.551 254.621 284.141 262.878 283.344 271.208C282.961 275.244 282.024 279.044 278.652 282.394C277.937 281.066 277.088 280.018 276.779 278.83C274.853 271.474 273.009 264.095 271.216 256.702C270.655 254.385 270.331 252.016 269.896 249.633C267.786 250.068 268.14 251.507 268.221 252.577C268.944 262.45 270.309 272.189 274.366 281.354C274.683 282.077 274.942 282.829 274.883 283.803C269.106 280.638 265.255 275.613 261.36 270.632C257.502 265.704 253.835 260.62 249.837 255.757C250.833 261.254 254.219 265.408 257.192 269.74C260.195 274.108 263.559 278.225 266.945 282.696C258.667 280.933 252.124 276.395 245.75 271.437C248.981 278.845 255.621 282.261 262.179 286.105C259.295 286.105 256.329 286.533 253.54 286.009C248.59 285.072 245.226 281.855 243.751 277.03ZM251.821 289.927C249.099 290.444 246.746 290.894 243.669 291.477C246.606 288.712 249.323 288.196 251.821 289.927ZM222.748 190.147C221.265 190.634 219.738 191.136 217.982 191.711C216.543 189.143 216.772 186.421 217.458 183.764C218.565 179.47 218.425 175.235 217.65 170.904C216.92 166.808 216.588 162.662 220.298 159.076C221.169 160.072 222.062 160.854 222.644 161.813C227.262 169.487 234.691 173.545 242.393 177.22C246.753 179.3 251.246 181.093 255.65 183.071C257.915 184.089 259.626 185.764 261.626 188.937C254.721 186.177 249.284 182.414 242.851 181.676C242.703 182.038 242.563 182.392 242.415 182.754C246.517 184.746 250.663 186.635 254.698 188.745C258.638 190.811 262.467 193.098 266.067 196.175C265.381 196.138 264.599 196.315 264.038 196.035C254.071 191.091 243.19 188.627 232.891 184.576C232.168 184.296 231.305 184.392 229.269 184.185C230.929 185.55 231.541 186.347 232.345 186.672C237.642 188.797 242.983 190.804 248.295 192.884C253.762 195.024 259.206 197.201 265.425 199.665C262.983 200.898 261.515 201.931 259.176 201.311C252.67 199.592 246.089 198.16 239.546 196.574C236.919 195.939 234.315 195.201 231.335 195.312C232.043 195.806 232.685 196.544 233.474 196.766C237.797 197.99 242.142 199.119 246.495 200.219C249.822 201.06 253.179 201.805 257.369 202.794C256.004 203.783 255.318 204.439 254.507 204.838C248.147 207.966 241.796 211.124 235.355 214.09C233.179 215.094 230.774 215.633 228.45 216.289C225.182 217.204 222.755 215.839 220.8 213.294C217.126 208.52 216.831 200.883 220.121 195.725C221.132 194.146 222.121 192.552 223.102 190.951C223.153 190.87 222.984 190.663 222.748 190.132V190.147ZM227.292 161.26C231.018 162.935 233.732 165.768 236.595 168.661C232.257 167.509 230.627 166.27 227.292 161.26ZM251.873 212.172C264.045 205.376 277.147 200.934 290.604 197.481C294.204 196.559 296.277 196.869 300.489 198.625C294.838 198.138 291.356 200.838 287.572 203.185C281.994 206.645 276.115 209.634 270.294 212.681C266.31 214.769 262.186 216.592 258.158 218.606C253.739 220.812 249.129 221.956 244.149 221.801C239.302 221.653 234.448 221.772 229.601 221.772C237.296 219.248 244.747 216.156 251.88 212.172H251.873ZM307.741 242.144C305.365 238.344 303.027 234.529 300.607 230.759C295.104 222.192 295.871 213.766 301.057 205.413C301.419 204.83 301.869 204.306 302.223 203.819C302.518 203.797 302.71 203.724 302.85 203.79C302.968 203.842 303.078 204.033 303.093 204.174C304.834 216.806 306.568 229.438 308.302 242.077C308.117 242.099 307.925 242.122 307.741 242.151V242.144ZM309.438 262.597C309.984 261.151 310.36 259.631 310.81 258.148C311.075 258.089 311.341 258.03 311.607 257.971C311.607 262.273 311.843 266.589 311.548 270.869C311.134 276.926 308.228 281.656 302.997 284.888C297.841 288.075 292.559 290.909 286.627 292.48C281.802 293.757 277.081 295.454 272.308 296.952C271.703 297.144 271.061 297.225 269.962 297.461C270.7 294.443 272.618 293.108 274.698 291.986C280.32 288.961 285.808 285.604 291.651 283.08C300.983 279.044 306.022 271.599 309.43 262.597H309.438ZM268.31 290.171C266.93 290.252 265.543 290.326 264.163 290.407C264.053 290.437 263.935 290.459 263.824 290.488C263.765 290.503 263.714 290.525 263.654 290.54C262.474 291.698 261.021 292.2 258.328 292.163C260.74 291.425 262.216 290.975 263.654 290.54C263.691 290.503 263.736 290.466 263.772 290.429C263.898 290.429 264.031 290.414 264.156 290.407C265.499 290.082 266.834 289.758 268.177 289.433C268.221 289.677 268.258 289.927 268.302 290.171H268.31ZM313.37 218.562C313.584 217.691 313.79 216.82 314.004 215.942C314.248 215.979 314.484 216.024 314.727 216.061C314.639 216.953 314.543 217.846 314.454 218.732C314.093 218.673 313.731 218.613 313.37 218.562ZM316.97 235.673C316.962 237.023 316.726 238.366 316.594 239.709C316.291 239.701 315.981 239.687 315.679 239.679C315.849 235.665 316.018 231.651 316.188 227.637C316.409 227.645 316.638 227.652 316.859 227.667C316.8 228.803 316.667 229.94 316.69 231.076C316.726 232.611 316.97 234.138 316.962 235.673H316.97ZM317.781 248.585C318.113 248.504 318.445 248.416 318.777 248.334C319.5 249.655 320.223 250.983 321.116 252.599C319.972 254.075 318.866 255.499 317.759 256.93C317.494 256.82 317.228 256.716 316.962 256.606C317.235 253.935 317.508 251.264 317.781 248.585ZM317.317 221.329C317.619 220.192 317.921 219.049 318.224 217.913C318.467 217.972 318.718 218.023 318.962 218.082C318.696 219.233 318.423 220.384 318.158 221.535C317.877 221.469 317.597 221.395 317.317 221.329ZM317.892 271.975C317.42 271.267 317.117 271.031 317.11 270.78C317.073 268.935 317.088 267.083 317.088 265.231C317.685 267.312 319.53 269.326 317.892 271.968V271.975ZM323.624 267.024C323.159 266.928 322.547 266.183 322.503 265.696C322.407 264.486 323.241 263.792 324.399 263.8C324.923 263.8 325.446 264.287 325.778 264.457C325.859 266.242 324.9 267.283 323.617 267.024H323.624ZM321.721 233.179C322.687 231.888 323.491 230.796 324.229 229.814C324.79 229.062 325.299 228.383 325.8 227.704C325.955 227.49 326.118 227.276 326.273 227.069C326.236 227.844 326.191 228.471 326.095 229.003C326.066 229.18 326.029 229.349 325.985 229.504C325.963 229.585 325.941 229.659 325.911 229.74C325.845 229.947 325.764 230.139 325.66 230.323C325.535 230.545 325.387 230.751 325.203 230.95C324.554 231.644 323.491 232.264 321.721 233.186V233.179ZM197.237 216.156H190.76C190.76 216.112 190.76 216.068 190.76 216.024H197.237C197.237 216.068 197.237 216.112 197.237 216.156ZM238.454 320.386V324.002C237.583 324.511 236.698 325.02 235.827 325.551C231.63 328.097 230.25 331.159 231.062 335.984C231.504 338.589 232.5 340.928 234.123 343.024C236.447 346.027 238.646 349.133 241.014 352.092C242.651 354.143 242.629 356.025 241.324 358.246C237.797 364.237 228.657 368.517 221.678 367.233C218.609 366.665 216.897 364.621 216.285 361.669C215.643 358.592 215.452 355.449 216.499 352.446C218.196 347.561 219.907 342.662 221.988 337.94C224.644 331.904 232.854 323.264 238.446 320.386H238.454ZM326.354 253.654C327.003 252.533 328.1 251.677 329.644 251.087C329.297 253.086 327.674 253.108 326.354 253.654ZM397.271 71.6913C399.979 73.0563 401.277 75.9266 402.502 78.6198C403.652 81.1358 404.693 83.7036 405.866 86.2123C407.208 89.0826 409.185 91.4142 411.731 93.3621C415.021 95.8782 418.208 98.5567 421.314 101.301C424.958 104.533 426.795 108.901 427.82 113.484C428.322 115.734 428.093 118.39 427.4 120.619C425.43 126.883 423.387 133.155 420.746 139.154C417.824 145.794 415.766 152.494 416.673 159.769C417.905 169.664 415.309 178.57 410.528 187.122C402.243 201.916 390.241 212.01 373.701 216.053C362.642 218.754 352.432 223.269 342.613 228.818C340.216 230.176 337.988 231.873 335.797 233.555C333.76 235.127 331.872 236.89 329.718 238.735C329.533 238.558 328.98 238.012 328.412 237.458C328.36 237.458 328.316 237.466 328.257 237.458C328.272 237.436 328.287 237.414 328.309 237.385C327.32 237.252 326.324 237.119 325.181 236.971C328.567 233.43 331.798 230.05 335.037 226.678C335.192 226.789 335.339 226.9 335.494 227.01C333.097 230.471 330.706 233.931 328.309 237.385C328.323 237.385 328.338 237.385 328.346 237.385C328.368 237.407 328.39 237.429 328.412 237.444C330.817 237.554 331.85 235.577 333.163 234.123C336.992 229.888 340.629 225.476 344.539 221.314C352.978 212.32 362.465 204.491 372.233 196.994C379.514 191.409 386.766 185.771 394.01 180.134C395.346 179.094 396.615 177.965 398.09 176.725C396.076 175.714 395.095 177.013 394.092 177.744C385.261 184.148 376.46 190.604 367.674 197.083C365.46 198.713 363.336 200.477 361.115 202.226C361.211 201.894 361.204 201.503 361.381 201.355C364.435 198.861 365.158 195.614 364.199 191.992C363.151 188.022 364.243 185.07 367.342 182.34C375.789 174.91 384.051 167.259 392.365 159.681C393.383 158.751 394.32 157.733 395.301 156.759C397.102 155.918 398.562 154.789 398.577 152.28C397.205 153.453 395.833 154.634 394.46 155.807C386.81 162.012 379.153 168.21 371.532 174.445C370.211 175.523 369.061 176.806 367.246 177.618C368.345 175.788 369.385 173.921 370.551 172.128C373.302 167.901 375.612 163.518 376.836 158.537C377.353 156.449 378.621 154.39 380.008 152.693C385.571 145.846 391.318 139.146 396.991 132.395C397.647 131.613 398.275 130.808 398.57 129.451C397.773 129.79 396.747 129.93 396.209 130.513C391.377 135.7 386.618 140.961 381.853 146.208C380.945 147.204 380.075 148.229 379.226 149.188C378.688 148.915 378.179 148.812 378.149 148.628C377.463 144.901 376.807 141.168 376.202 137.427C375.899 135.553 376.836 134.092 377.965 132.719C379.463 130.897 380.923 129.045 382.945 126.536C379.89 127.783 379.854 127.754 378.629 129.185C377.626 130.358 376.726 131.62 375.272 133.487C373.716 130.203 372.639 127.923 371.569 125.636C370.794 123.976 371.702 122.603 372.388 121.231C375.28 115.49 378.695 110.089 382.694 105.05C383.616 103.884 384.472 102.659 385.062 101.22C380.938 102.991 378.703 106.666 376.194 109.986C373.73 113.247 371.591 116.76 369.09 120.493C366.154 116.634 363.933 112.775 361.831 108.842C361.196 107.647 361.337 106.496 362.067 105.411C363.137 103.832 364.243 102.29 365.328 100.726C366.191 99.479 367.047 98.232 367.924 96.9555C366.405 95.8561 365.815 96.9998 365.21 97.6565C363.365 99.6487 361.61 101.715 359.655 103.95C356.541 100.438 354.977 96.5792 353.701 92.6833C352.012 87.5257 349.112 83.0469 346.545 78.3615C343.41 72.6357 339.065 68.4521 332.462 67.0354C331.798 66.8952 331.178 66.5484 330.514 66.2901C334.41 61.2063 339.662 59.2436 345.402 60.9185C348.05 61.6933 350.588 62.837 353.177 63.8109C357.781 65.5449 362.355 66.5041 367.364 65.2055C370.661 64.3496 374.195 64.3053 377.633 64.0913C378.976 64.0028 380.466 64.1651 381.69 64.6816C386.943 66.8878 392.21 69.1014 397.293 71.6618L397.271 71.6913ZM314.845 18.2999C318.121 18.0564 321.426 18.0712 324.709 18.1745C331.296 18.3737 336.77 20.9709 340.924 26.1581C341.676 27.1025 342.34 28.1208 343.078 29.08C344.878 31.419 347.202 32.6955 350.219 32.6365C353.163 32.5774 356.114 32.6438 359.057 32.5701C361.75 32.4963 364.184 33.153 366.405 34.673C367.408 35.3592 368.397 36.1044 369.503 36.5692C374.586 38.709 377.736 42.7525 380.34 47.342C381.882 50.0499 383.07 53.0013 384.936 55.4584C386.744 57.8491 389.208 59.7454 392.284 62.7337C390.137 61.7523 389.09 61.2727 388.05 60.7931C382.177 58.0999 376.025 57.5539 369.769 58.8378C364.147 59.9888 358.784 59.6273 353.561 57.185C351.842 56.3807 350.013 55.8052 348.227 55.1485C345.055 53.9753 341.861 53.599 338.578 54.7501C337.973 54.964 337.272 54.9271 336.298 55.0378C335.789 51.7248 338.305 49.526 339.079 45.7556C334.476 48.5299 333.052 52.3004 331.746 55.997C330.603 59.2362 328.648 61.6564 325.594 64.0987C325.033 60.0184 326.826 56.757 327.283 53.326C327.748 49.799 329.393 46.4492 329.12 42.022C325.977 45.6892 325.24 49.6293 324.037 53.3039C322.805 57.0743 321.89 60.9554 320.858 64.7259C316.689 65.6777 315.295 64.9989 315.089 61.4424C314.779 56.1077 313.775 50.7878 314.439 45.4088C314.513 44.8259 314.122 44.1913 313.894 43.3944C311.872 45.9843 311.887 45.9917 311.385 50.4852C311.098 53.0382 310.766 55.5838 309.799 58.2918C309.408 57.3104 308.685 56.3291 308.693 55.3477C308.7 52.411 309.054 49.4818 309.157 46.5451C309.283 43.0845 309.475 39.6166 309.298 36.1708C308.995 30.5262 307.335 25.3169 302.983 20.8676C307.099 19.296 310.95 18.5877 314.853 18.2999H314.845ZM147.905 88.8538C149.646 80.3094 152.516 72.1856 157.444 64.8735C164.121 54.9714 170.65 44.9734 177.363 35.0935C179.303 32.238 181.516 29.5522 183.825 26.9771C185.19 25.4497 186.909 24.1954 188.591 23C190.797 21.4284 193.217 20.8529 195.961 21.6203C197.576 22.0703 199.318 22.0777 201.177 22.3065C201.42 20.7717 201.354 19.4141 201.885 18.3515C202.401 17.3259 203.515 16.5881 204.4 15.7617C210.155 10.3827 217.237 7.64523 224.732 5.9334C228.244 5.12914 231.903 4.97419 235.503 4.56099C236.536 4.44293 237.605 4.59788 238.609 4.3839C245.152 2.98935 251.298 4.57574 257.31 6.89999C260.696 8.206 264.001 9.74074 267.269 11.3271C273.208 14.2122 279.405 16.3003 285.786 17.9974C289.438 18.964 292.964 20.484 296.446 21.9892C302.341 24.5422 305.07 29.353 305.129 35.5805C305.181 40.4135 304.915 45.2686 304.495 50.0868C304.126 54.2926 303.846 58.3877 306.324 62.1286C306.59 62.5271 306.605 63.1026 306.693 63.597C306.723 63.7519 306.612 63.929 306.465 64.4455C298.254 65.0284 290.095 64.8144 281.906 61.0514C281.625 57.1112 281.352 53.2079 280.984 48.0946C280.025 49.7179 279.442 50.3008 279.324 50.9722C278.911 53.3334 278.66 55.7314 278.298 58.491C274.927 57.9228 272.522 55.8864 269.814 54.9567C268.118 49.9318 269.696 44.6119 267.749 39.7789C265.543 44.3389 265.698 49.1645 265.624 54.6541C263.374 52.7357 262.482 50.8173 261.921 48.6775C261.39 46.6705 260.947 44.634 260.335 42.6566C259.7 40.6275 260.128 38.1999 258.011 36.1265C256.631 39.9929 258.564 43.3133 258.114 47.0911C257.096 46.7 256.211 46.4418 255.399 46.0286C251.703 44.147 247.993 42.4057 243.92 41.3432C240.955 40.5684 238.055 39.1813 235.414 37.5949C230.826 34.8353 226.444 31.7141 221.988 28.7258C220.409 27.6633 218.823 26.6008 217.288 25.4792C211.888 21.517 208.214 22.0039 203.161 27.132C201.848 28.4602 200.904 30.1868 199.945 31.8174C197.481 36.0232 194.626 39.8896 191.092 43.2911C178.993 54.964 167.455 67.1461 156.766 80.1397C153.18 84.5005 150.266 89.0752 148.887 94.5796C148.732 95.2068 148.341 95.7823 147.492 96.2988C147.61 93.8122 147.404 91.2593 147.898 88.8465L147.905 88.8538ZM149.012 123.791C150.997 127.038 152.863 130.358 154.921 133.561C156.662 136.261 157.754 139.087 157.525 142.349C157.407 144.075 157.525 145.831 157.245 147.528C155.438 158.493 157.127 168.911 161.937 178.872C162.062 179.138 162.026 179.485 162.121 180.178C157.304 177.95 153.261 173.766 146.725 175.139C147.758 175.973 148.186 176.489 148.739 176.74C153.778 179.02 158.853 181.211 163.877 183.521C166.194 184.583 167.389 186.148 169.329 189.977C165.921 190.14 162.999 186.679 158.566 188.693C165.618 192.11 172.45 194.058 178.661 197.252C184.762 200.388 190.812 203.79 197.178 208.778C192.457 207.988 188.834 207.531 185.279 206.756C181.546 205.937 177.872 205.664 172.936 206.454C177.392 209.398 181.538 208.114 185.168 209.228C188.768 210.335 192.589 210.733 196.285 212.201C194.766 212.305 193.239 212.364 191.726 212.526C190.015 212.711 188.311 212.976 186.599 213.22C184.032 213.589 181.457 213.899 178.912 214.356C174.714 215.109 171.631 217.403 169.72 221.255C169.034 222.635 168.245 223.963 167.042 226.162C163.774 219.086 163.427 212.622 164.128 206.003C164.327 204.137 165.419 202.89 166.835 201.768C168.51 200.44 169.794 198.861 169.255 196.234C168.731 196.352 168.178 196.301 167.927 196.559C162.343 202.285 153.003 201.097 148.643 196.965C146.533 194.965 144.623 192.634 143.095 190.154C139.835 184.842 137.017 179.264 133.785 173.936C130.51 168.535 129.949 163.068 131.757 157.002C134.582 147.528 142.085 129.724 147.301 121.43C147.95 122.316 148.547 123.024 149.019 123.806L149.012 123.791ZM140.086 192.021C140.963 194.013 142.66 195.659 144.047 197.422C146.718 200.824 150.251 202.823 154.442 203.738C155.939 204.063 157.444 204.373 159.23 204.749C159.348 205.767 159.532 206.749 159.569 207.745C159.598 208.579 159.451 209.42 159.362 210.578C157.961 210.224 156.788 210.069 155.725 209.634C150.296 207.428 144.918 205.081 139.459 202.934C137.061 201.99 135.431 200.44 134.213 198.226C131.956 194.131 130.444 189.867 130.266 184.82C134.759 186.067 138.219 187.778 140.093 192.028L140.086 192.021ZM130.281 175.264C132.007 178.179 133.195 180.178 134.486 182.363C129.78 181.824 129.293 181.093 130.281 175.264ZM156.994 212.659C158.824 213.367 159.798 214.474 160.1 216.385C160.469 218.768 160.993 221.13 161.45 223.52C158.455 223.262 154.456 221.631 152.804 219.86C148.68 215.441 144.6 210.977 139.717 205.671C146.128 208.276 151.528 210.541 156.994 212.652V212.659ZM49.1979 190.678C46.0552 178.194 44.233 165.525 44.6092 152.634C44.9486 140.947 46.8077 129.547 52.1783 118.958C52.5693 118.184 52.9455 117.402 53.4029 116.671C53.6685 116.243 54.089 115.911 54.9374 115.004C58.3899 118.907 61.5253 122.552 64.7639 126.101C70.0091 131.864 75.1658 137.715 80.6545 143.227C83.4357 146.016 86.8587 148.17 90.0457 150.546C90.6802 151.018 91.5433 151.195 92.5245 151.21C90.149 147.447 86.062 145.462 83.3177 142.12C80.4627 138.644 77.4601 135.295 74.4797 131.915C71.5215 128.565 68.5189 125.252 65.2213 121.57C66.5418 120.892 67.3902 120.464 68.2312 120.021C70.9903 118.582 73.9264 117.402 76.4716 115.653C81.2742 112.347 86.1284 112.237 91.2335 114.583C94.2212 115.963 97.1279 117.534 100.167 118.774C102.307 119.645 104.453 120.892 107.869 120.294C105.25 118.361 103.251 116.885 100.809 115.092C102.085 114.457 102.897 113.904 103.79 113.631C108.836 112.074 113.196 109.344 117.408 106.223C119.894 104.386 122.624 102.844 125.346 101.361C128.053 99.8848 131.063 100.224 134.007 100.35C134.176 100.35 134.39 100.342 134.516 100.423C137.917 102.748 141.812 104.622 144.541 107.573C146.356 109.543 146.496 113.329 145.279 115.963C142.623 121.725 139.37 127.208 136.183 133.14C132.517 129.672 130.126 125.488 125.375 122.891C125.648 125.518 127.316 126.617 128.289 128.086C129.248 129.525 130.296 130.912 131.27 132.343C132.339 133.915 133.365 135.516 134.575 137.353C133.557 139.618 132.502 141.943 131.248 144.739C127.323 142.253 125.051 138.276 121.097 136.549C120.16 137.766 121.111 138.312 121.591 138.866C123.76 141.338 125.973 143.78 128.216 146.185C129.248 147.285 129.75 148.48 129.33 149.956C128.26 153.734 127.175 157.504 125.921 161.872C119.451 156.272 113.395 151.033 107.058 145.551C107.072 147.912 108.467 149.277 109.75 150.517C114.088 154.737 118.323 159.105 123.022 162.898C125.973 165.281 127.094 167.79 126.57 171.391C126.253 173.582 126.231 175.81 126.039 178.563C118.876 175.508 112.989 170.977 106.231 167.141C105.973 169.052 107.028 169.738 107.913 170.365C112.576 173.663 117.275 176.917 121.989 180.149C123.265 181.027 124.63 181.772 125.752 182.458C126.814 187.638 127.81 192.53 128.894 197.835C127.876 197.577 126.961 197.297 126.025 197.112C125.08 196.928 124.114 196.832 122.948 197.481C123.679 197.776 124.409 198.064 125.132 198.374C128.85 199.975 131.897 202.189 134.25 205.708C136.434 208.977 139.518 211.648 142.232 214.555C142.918 215.286 143.686 215.942 144.859 217.057C137.43 215.684 130.702 214.437 123.966 213.227C123.715 213.183 123.406 213.507 122.587 213.95C124.483 214.644 126.002 215.271 127.574 215.765C135.497 218.237 143.516 220.451 151.336 223.218C155.711 224.76 159.82 227.091 163.951 229.261C166.326 230.508 167.913 232.456 167.684 236.005C162.645 234.249 157.983 232.625 153.313 231.002C148.577 229.349 143.877 227.549 139.082 226.088C134.376 224.657 129.875 222.399 124.615 222.539C125.397 223.048 126.135 223.668 126.976 224.059C135.63 228.043 144.49 231.504 153.549 234.47C161.103 236.949 168.599 239.628 176.101 242.247C177.237 242.645 178.278 243.332 179.421 243.723C186.747 246.217 188.06 252.282 188.901 259.609C173.497 250.437 157.754 243.745 141.465 238.336C141.295 238.698 141.126 239.06 140.956 239.421C142.247 240.1 143.509 240.83 144.822 241.458C157.024 247.235 169.233 252.998 181.442 258.768C182.224 259.137 182.977 259.565 183.729 259.993C185.795 261.158 187.248 262.022 188.289 262.9C188.716 263.261 189.078 263.63 189.388 264.021C190.716 265.726 191.003 267.939 191.431 272.573C191.121 272.551 190.723 272.647 190.509 272.484C183.715 267.438 175.917 264.626 167.89 262.332C159.739 260 151.565 257.742 143.383 255.506C142.306 255.211 141.148 255.233 139.813 255.942C142.992 257.137 146.15 258.414 149.366 259.528C158.359 262.641 167.381 265.674 176.389 268.758C182.188 270.743 187.359 273.857 192.073 277.745C192.538 278.129 192.848 278.69 193.637 279.693C189.793 278.778 186.599 278.173 183.486 277.251C176.005 275.037 168.399 275.384 160.801 276.07C157.887 276.336 155.017 277.074 152.125 277.576C136.847 280.254 123.856 275.406 112.532 265.364C110.082 263.195 107.832 260.73 105.87 258.111C102.484 253.588 101.473 248.416 102.749 242.867C103.723 238.639 105.398 237.193 109.817 236.529C114.398 235.842 118.965 235.119 124.726 234.234C123.044 233.149 122.358 232.33 121.642 232.308C117.312 232.183 112.967 231.991 108.659 232.33C106.526 232.5 104.144 233.319 102.462 234.61C100.079 236.44 97.6885 236.499 95.1139 235.953C93.4392 235.599 91.772 234.987 90.2523 234.197C80.0495 228.929 70.4296 222.827 62.4179 214.445C55.9333 207.656 51.4922 199.732 49.2053 190.634L49.1979 190.678ZM32.9606 322.009C31.8687 321.05 31.2122 320.652 30.8064 320.084C28.6965 317.125 26.7194 314.063 24.5505 311.141C22.1824 307.953 19.6078 304.921 17.2028 301.755C13.3371 296.664 9.09518 291.838 6.51315 285.862C4.3885 280.94 4.28521 276.292 7.05168 271.466C10.4378 265.571 14.3183 260.081 19.025 255.204C22.0275 252.09 25.1481 249.08 28.3941 246.217C31.9646 243.066 34.2295 239.532 33.8827 234.507C33.5729 229.999 35.3803 226.088 38.0656 222.502C41.2305 218.274 45.1625 214.939 49.611 212.179C50.7397 211.478 52.0603 211.087 53.4988 210.468C55.8743 213.448 58.0875 216.23 60.5515 219.322C55.771 221.056 50.9389 221.262 46.6823 224.612C50.902 225.579 54.1111 222.701 57.9104 223.417C57.903 226.206 55.9997 227.423 54.1185 228.523C50.5258 230.611 46.8519 232.544 43.2371 234.603C41.9387 235.341 40.7288 236.248 39.6591 237.414C44.4174 237.126 48.1356 234.02 52.5546 232.913C52.3627 237.761 50.511 240.948 46.8077 243.28C43.4363 245.398 40.1386 247.633 36.8631 249.899C35.941 250.541 35.218 251.47 33.7057 252.953C37.1287 252.525 39.0173 251.005 41.0829 249.921C43.215 248.799 45.3617 247.707 47.9585 246.364C48.2905 249.19 46.7118 250.969 45.9593 252.916C44.897 255.669 43.3846 258.022 40.6182 259.638C36.7377 261.896 33.1229 264.619 29.4195 267.172C28.6301 267.718 27.944 268.404 27.3834 269.326C32.7024 268.913 36.7672 265.526 41.71 263.46C42.8756 265.475 43.0231 267.703 42.9641 269.828C42.9346 270.854 42.1084 272.056 41.3042 272.816C38.4124 275.547 35.3508 278.1 32.4147 280.785C31.7581 281.383 31.3597 282.261 30.2162 283.936C33.8532 282.999 35.6975 281.117 37.8296 279.848C39.8731 278.631 41.8059 277.222 43.8199 275.879C45.8265 280.173 45.856 280.21 42.9494 282.63C40.5518 284.622 38.0435 286.474 35.6459 288.459C34.3918 289.507 33.2704 290.717 32.0901 291.853C36.8041 291.115 40.1386 288.061 44.624 285.559C41.9387 291.846 39.4378 297.454 37.1361 303.142C34.7975 308.935 33.204 314.941 32.968 322.009H32.9606ZM100.566 380.772C98.5148 387.302 97.3418 394.157 97.3344 401.182C94.0589 400.916 91.6392 399.278 89.6473 397.072C81.8791 388.476 74.1182 379.857 66.5049 371.121C63.5835 367.764 62.1745 363.691 62.2556 359.153C62.2778 357.781 62.1966 356.364 61.8573 355.043C61.2597 352.69 59.7179 351.066 57.2686 350.624C54.8858 350.196 52.4734 349.952 50.0758 349.635C45.5978 349.045 44.4101 347.857 43.5764 343.614C43.0453 340.913 42.2707 338.264 41.5477 335.608C40.7731 332.775 39.7993 329.986 39.1206 327.13C37.8222 321.655 37.6009 316.107 39.2755 310.705C41.2231 304.441 43.51 298.273 45.7011 292.089C46.0404 291.137 46.6601 290.289 47.7151 288.371C50.2455 295.646 54.5464 299.793 61.4884 301.379C58.6334 306.817 52.7464 309.54 50.275 315.9C53.1521 314.587 54.3325 312.624 55.9555 311.215C57.785 309.628 59.5924 308.012 61.3704 306.374C63.0155 304.862 64.609 303.297 66.1066 301.873C68.9025 301.859 70.5993 303.098 71.8977 305.452C69.2935 309.208 64.9926 311.406 62.5286 315.369C67.0508 314.011 69.7952 309.931 74.2953 307.702C76.0953 310.705 77.8142 313.576 79.6438 316.63C73.5945 320.881 67.8623 325.536 62.4622 332.325C64.2253 331.727 65.0295 331.639 65.5901 331.225C68.7919 328.857 71.9198 326.4 75.1068 324.009C75.9035 323.411 76.8183 322.954 78.0724 322.187C78.5815 325.396 78.6774 328.488 82.5726 329.624C78.7511 332.797 75.3281 335.276 73.2403 339.253C74.2215 338.744 75.2322 338.279 76.1839 337.711C79.0758 335.984 81.3258 332.878 85.3021 333.527C89.1014 329.425 92.4876 332.509 95.9401 334.162C96.7 334.524 97.4082 334.988 98.6697 335.711C97.4156 336.353 96.6262 336.826 95.7926 337.18C90.3924 339.489 84.9628 341.732 79.5774 344.079C78.0798 344.735 76.4863 345.451 75.6822 347.724C76.7298 347.547 77.379 347.525 77.9692 347.325C84.6751 345.031 91.3958 342.788 98.05 340.36C102.624 338.692 106.445 339.755 110.171 343.061C104.992 346.064 98.8541 346.853 93.8376 351.826C95.645 351.465 96.5598 351.369 97.4156 351.096C102.196 349.591 106.991 348.137 111.72 346.484C114.051 345.673 115.704 346.16 117.386 348.543C108.481 352.586 100.846 358.157 94.1622 365.012C93.7491 365.432 93.5942 366.111 92.7827 367.771C97.4672 365.425 100.189 362.296 103.576 360.164C106.94 358.039 110.2 355.759 114.059 353.9C113.505 354.815 113.026 355.789 112.391 356.644C106.962 363.971 103.244 372.213 100.551 380.795L100.566 380.772ZM272.5 460.889C271.954 464.305 270.021 466.548 267.055 467.987C261.921 470.481 256.735 472.872 251.585 475.336C245.352 478.317 238.749 478.155 232.22 477.151C222.593 475.668 213.246 476.015 204.164 479.763C199.369 481.748 194.522 483.63 189.845 485.873C184.305 488.529 178.44 489.924 172.464 490.92C166.518 491.916 161.103 490.58 156.537 486.448C154.611 484.707 152.826 482.796 150.768 481.224C147.751 478.915 144.615 476.731 141.406 474.694C138.433 472.813 135.925 470.555 133.808 467.729C131.528 464.689 128.983 461.841 126.511 458.948C124.003 456.019 122.225 452.699 120.765 449.135C118.396 443.38 115.984 437.624 113.255 432.039C111.322 428.084 109.802 424.144 109.721 419.687C109.662 416.182 108.71 412.862 107.301 409.652C106.121 406.959 105.103 404.185 103.9 401.499C102.867 399.197 102.639 396.799 102.971 394.371C104.682 381.879 108.518 370.096 114.959 359.227C116.604 356.445 118.633 353.885 120.897 351.413C121.296 355.877 117.563 359.419 118.197 364.362C120.484 362.938 120.883 360.74 122.033 359.131C123.125 357.604 124.047 355.944 125.066 354.298H133.933C129.064 363.034 124.859 371.645 123.9 382.071C126.084 381.134 126.032 379.607 126.401 378.456C128.621 371.49 131.683 364.908 135.408 358.629C137.629 354.881 137.828 354.866 142.83 355.958C142.66 356.903 142.675 357.943 142.291 358.799C136.249 372.191 133.417 386.454 130.768 400.776C130.392 402.805 130.207 404.856 131.166 407.579C131.83 406.376 132.376 405.749 132.546 405.041C134.125 398.304 135.276 391.434 137.267 384.823C139.554 377.216 142.55 369.823 145.294 362.356C145.641 361.411 146.327 360.585 146.932 359.589C149.691 362.038 152.324 364.377 155.275 366.997C149.713 380.042 147.101 394.105 145.036 408.479C145.582 407.579 146.327 406.752 146.637 405.778C149.093 398.024 151.461 390.239 153.874 382.462C154.228 381.326 154.663 380.212 155.475 377.924C158.152 387.583 161.177 395.625 166.135 402.805C167.16 404.288 166.946 405.668 166.26 407.195C164.851 410.353 163.457 413.533 162.232 416.765C161.317 419.185 160.572 421.687 159.938 424.203C159.621 425.472 159.716 426.837 159.554 429.132C162.018 426.431 162.166 423.738 163.287 421.524C164.386 419.362 165.338 417.127 166.422 414.957C167.573 412.655 168.798 410.39 170.207 407.712C175.29 412.028 177.99 417.761 182.335 422.203C180.978 428.689 178.543 434.82 177.968 441.786C179.438 440.561 180.906 438.03 182.372 434.193C183.353 431.648 184.401 429.124 185.596 426.158C189.447 428.814 192.228 431.817 194.522 435.204C195.208 436.215 195.245 437.875 195.112 439.189C194.626 443.837 193.962 448.464 193.305 453.09C193.047 454.92 192.604 456.735 193.401 459.487C196.721 453.031 197.016 446.589 198.904 440.473C199.413 440.738 199.915 440.886 200.269 441.203C205.03 445.522 207.032 450.879 206.274 457.273C206.031 459.34 205.647 461.383 205.47 463.457C205.389 464.372 205.669 465.324 206.149 466.29C208.908 461.391 209.188 455.857 210.516 450.249C213.467 451.614 216.197 453.023 219.037 454.16C221.892 455.296 224.85 456.159 227.853 457.17C228.081 461.287 226.171 465.095 227.513 469.699C230.435 465.766 230.39 461.391 232.338 457.738C236.698 457.141 241.065 456.55 245.861 455.894V464.763C246.133 464.829 246.414 464.888 246.687 464.955C246.982 464.291 247.388 463.656 247.55 462.962C247.985 461.11 248.428 459.251 248.664 457.362C249.003 454.639 250.457 453.009 253.002 452.116C255.894 451.098 258.741 449.947 262.135 450.102C262.386 453.348 261.176 456.071 260.733 459.664C264.259 456.949 263.736 453.245 265.359 450.382C268.73 448.958 271.541 450.552 274.462 452.108C273.761 455.215 272.987 458.034 272.522 460.904L272.5 460.889ZM369.533 407.424C369.238 410.169 368.972 412.95 369.053 415.71C369.252 422.498 367.268 428.704 364.376 434.695C362.377 438.849 359.241 441.38 354.513 442.236C349.231 443.195 343.978 444.014 338.607 444.405C332.418 444.863 326.273 445.977 320.105 446.803C313.938 447.63 307.8 448.796 301.61 449.223C292.713 449.829 283.912 448.493 275.665 445.173C267.432 441.86 259.449 442.502 251.327 444.914C249.675 445.409 248.066 446.095 246.502 446.818C235.946 451.71 225.846 449.777 216.152 444.509C211.276 441.86 207.13 438.097 203.242 434.105C198.167 428.888 193.01 423.753 187.92 418.551C185.987 416.573 184.135 414.507 182.254 412.471C179.082 409.047 176.005 405.535 172.723 402.229C169.631 399.116 167.013 395.744 165.227 391.722C164.526 390.143 163.796 388.564 162.94 387.066C159.598 381.2 159.067 375.01 160.491 368.133C163.722 367.653 166.917 367.122 170.118 366.709C174.921 366.089 179.037 364.03 182.638 360.865C183.242 360.334 183.611 359.537 184.615 358.128C183.051 358.393 182.21 358.327 181.59 358.674C173.977 362.916 165.921 362.459 157.828 360.777C155.069 360.201 152.413 359.02 152.708 355.331C149.742 347.001 152.922 340.087 157.961 333.771C160.653 330.399 163.744 327.329 166.776 324.238C168.466 322.519 170.273 320.836 172.265 319.493C178.72 315.125 185.116 310.617 191.866 306.758C195.548 304.655 199.908 303.711 203.987 302.323C204.511 302.146 205.205 302.464 206.835 302.7C199.686 306.573 193.194 309.768 188.871 316.084C189.661 315.782 190.553 315.634 191.21 315.162C196.861 311.082 202.991 307.953 209.771 305.371C211.667 306.773 213.585 308.189 215.909 309.909C212.294 312.299 208.871 314.232 205.839 316.667C202.748 319.147 200.011 322.068 197.193 324.872C194.434 327.625 191.985 330.613 190.863 334.516C199.576 326.068 208.347 317.863 219.612 312.417C222.615 313.945 225.617 315.472 229.203 317.295C216.964 323.603 208.605 332.885 201.804 343.725C195.171 354.298 193.32 358.423 192.597 364.422C193.578 363.344 194.257 362.747 194.758 362.023C200.985 353.066 207.034 343.983 213.445 335.158C217.134 330.074 222.128 326.23 227.366 322.784C228.177 322.246 229.092 321.854 230.339 321.884C229.409 322.821 228.517 323.802 227.535 324.688C222.121 329.543 218.395 335.512 215.909 342.293C214.832 345.23 213.379 347.783 211.217 350.196C206.946 354.97 203.441 360.385 200.793 366.281C200.417 367.107 200.38 368.089 200.963 369.395C202.482 367.38 203.914 365.292 205.551 363.389C207.086 361.603 208.155 359.345 210.509 357.973C211.726 361.913 212.877 365.632 214.153 369.771C212.397 373.077 210.236 376.825 208.384 380.706C206.577 384.499 204.791 388.365 204.85 393.707C207.875 389.819 209.085 385.982 211.121 382.632C213.187 379.238 215.149 375.777 217.266 372.139C222.121 373.106 226.872 373.527 232.257 371.571C228.878 377.814 225.654 383.045 223.124 388.601C219.236 397.131 218.181 401.956 218.513 406.398C219.31 405.196 219.966 404.45 220.357 403.587C222.445 399.02 224.526 394.445 226.51 389.833C229.69 382.455 234.005 375.792 238.978 369.52C239.28 369.136 239.745 368.893 240.379 368.384C241.626 370.376 242.792 372.25 244.038 374.25C237.996 383.384 233.725 393.102 231.372 404.214C233.253 403.764 233.482 402.643 233.946 401.624C236.897 395.168 239.841 388.712 242.902 382.315C243.847 380.33 244.776 378.212 247.307 377.009C249.166 378.404 251.069 379.828 253.297 381.496C248.502 389.737 245.824 398.341 246.687 407.977C247.188 407.077 247.823 406.221 248.17 405.255C250.036 400.038 251.77 394.777 253.68 389.575C254.315 387.848 255.326 386.262 256.329 384.299C258.586 385.871 260.401 387.125 262.29 388.439C262.341 392.593 260.431 396.459 260.984 401.381C263.883 397.655 263.868 393.611 265.646 390.069C270.582 391.25 273.599 394.851 276.697 398.245C277.266 398.872 277.162 400.215 277.17 401.233C277.199 404.701 277.103 408.169 277.125 411.63C277.133 412.766 277.361 413.902 277.583 415.872C280.659 411.467 278.49 406.612 280.703 402.908C281.22 402.908 281.574 402.82 281.862 402.923C287.062 404.79 288.567 404.332 290.449 399.108C292.027 394.733 292.957 390.128 294.167 385.62C294.373 384.86 294.536 384.093 295.126 383.362C296.195 388.431 295.539 393.53 295.923 398.577C296.306 403.631 296.232 408.745 297.789 413.71C299.766 410.014 298.814 406.044 298.984 402.207C299.154 398.4 299.087 394.578 299.006 390.77C298.918 386.845 298.689 382.92 298.519 379.002C302.584 378.729 303.499 381.156 304.104 384.122C305.439 390.734 306.907 397.323 308.346 403.919C308.449 404.391 308.722 404.834 308.921 405.299C310.33 405.077 309.954 404.111 309.858 403.321C309.084 396.961 308.287 390.608 307.497 384.248C307.416 383.569 307.343 382.883 307.21 381.746C312.3 382.211 317.073 383.141 321.75 384.794C324.436 391.767 325.579 399.145 328.973 405.778C329.246 398.998 326.324 392.755 325.55 386.056C328.198 384.69 330.751 385.473 333.48 385.605C335.295 388.424 335.347 391.818 336.32 394.902C337.279 397.942 338.054 401.034 339.33 404.037C340.555 401.027 339.891 398.06 339.493 395.109C339.102 392.202 338.629 389.302 338.194 386.402C342.104 385.901 350.234 386.631 353.664 387.819C355.929 393.928 356.128 400.761 358.681 407.011C360.437 403.757 359.367 400.414 359.197 397.16C359.02 393.884 358.511 390.63 358.105 387.007C359.677 386.631 361.115 386.292 362.51 385.96C363.026 386.439 363.476 386.72 363.749 387.125C364.332 387.981 364.708 389 365.379 389.774C369.872 394.939 370.189 401.034 369.503 407.409L369.533 407.424ZM506.882 306.086C512.083 313.266 514.068 321.449 513.928 330.111C513.81 337.231 515.942 343.326 520.331 348.845C522.264 351.273 523.88 353.981 525.407 356.696C527.966 361.234 527.45 362.665 522.603 364.362C517.542 366.133 512.393 367.661 507.303 369.358C501.556 371.276 495.839 373.268 490.114 375.246C489.376 375.504 488.69 375.91 486.964 376.729C492.843 377.784 497.144 375.659 501.593 374.929C505.96 374.213 510.187 372.752 515.521 371.653C513.817 374.811 512.792 377.15 511.39 379.238C507.539 384.971 504.101 391.095 497.993 394.902C496.525 395.817 495.027 396.688 493.515 397.537C490.21 399.389 487.849 402.015 486.573 405.623C485.761 407.911 484.965 410.22 483.91 412.39C478.9 422.661 471.553 430.334 460.066 433.138C457.728 433.706 455.249 433.669 452.896 434.179C442.295 436.459 431.553 436.237 420.827 435.927C411.834 435.669 402.856 435.005 393.87 434.85C386.965 434.732 380.023 434.518 373.155 435.728C372.705 435.809 372.189 435.529 371.355 435.337C371.598 434.127 371.665 432.946 372.07 431.899C374.63 425.339 375.767 418.588 375.383 411.541C375.206 408.258 375.235 404.952 375.383 401.661C375.582 397.138 374.291 393.132 371.746 389.45C371.008 388.38 370.433 387.199 369.215 385.059C380.112 390.069 389.046 396.164 398.127 401.986C399.27 400.304 398.127 399.743 397.456 399.123C391.731 393.751 385.172 389.553 378.393 385.679C377.205 385 376.017 384.322 374.262 383.311C377.721 381.555 380.938 380.544 384.11 379.776C385.527 379.437 387.408 380.595 388.964 381.318C398.385 385.701 407.769 390.158 417.175 394.578C418.68 395.286 420.222 395.906 421.749 396.57C421.955 396.179 422.162 395.78 422.361 395.389C411.745 388.675 400.864 382.41 389.245 377.4C391.591 374.22 393.715 371.343 396.113 368.096C397.382 368.524 399.042 368.922 400.561 369.609C409.547 373.667 418.503 377.806 427.481 381.894C428.411 382.315 429.384 382.639 430.351 382.971C430.447 383.001 430.624 382.787 430.764 382.684C427.724 378.839 422.398 375.799 401.329 365.956C402.686 365.491 403.645 365.078 404.648 364.842C405.652 364.599 406.788 364.739 407.717 364.355C415.345 361.227 422.656 363.3 429.96 365.609C432.048 366.266 434.143 366.901 436.371 367.166C432.188 362.85 426.242 362.164 420.797 359.655C424.936 356.268 429.274 354.918 434.039 356.217C441.372 358.216 448.609 360.585 455.898 362.776C459.137 363.75 462.198 365.418 465.769 365.211C457.706 360.673 449.111 357.427 439.255 354.003C445.998 352.077 450.587 348.971 453.604 343.865C457.802 344.713 461.675 345.54 465.562 346.27C469.214 346.956 472.637 348.668 476.473 348.749C473.84 345.982 470.306 345.112 466.957 343.99C463.57 342.854 460.088 341.991 456.658 341.009C459.314 337.785 461.815 334.752 464.581 331.395C470.564 332.155 476.835 332.952 483.105 333.741C483.194 333.505 483.283 333.277 483.371 333.04C482.773 332.649 482.22 332.052 481.564 331.897C477.189 330.871 472.829 329.705 468.388 329.056C465.275 328.599 463.246 327.344 462.316 324.024C465.835 322.238 469.686 323.138 473.345 322.924C477.137 322.71 480.996 322.762 484.765 323.197C488.461 323.625 492.091 324.695 496.207 325.581C492.084 321.766 486.551 320.578 472.025 320.239C474.039 319.361 475.463 318.851 476.776 318.15C478.296 317.339 479.859 316.52 481.173 315.42C484.36 312.757 486.765 309.643 485.747 305.754C488.624 301.372 491.169 297.505 493.884 293.373C499.033 296.561 503.223 301.032 506.882 306.086ZM492.275 277.642C489.649 277.052 488.365 278.144 488.314 280.896C488.284 282.623 488.535 284.349 488.602 286.076C488.83 292.237 486.772 297.564 482.766 302.508C478.214 300.7 474.304 298.221 471.265 294.664C468.13 290.997 464.404 288.393 459.904 286.777C456.975 285.729 454.061 284.622 451.147 283.53C446.986 281.973 442.767 281.597 438.414 282.645C437.271 282.918 436.046 282.859 434.63 282.387C435.744 281.715 436.813 280.933 437.986 280.394C446.839 276.307 456.215 273.916 465.732 272.071C472.003 270.854 478.318 269.836 484.596 268.662C485.555 268.485 486.447 267.924 487.296 267.57C487.222 267.142 487.237 266.98 487.163 266.884C487.06 266.759 486.875 266.604 486.742 266.618C480.575 267.327 474.371 267.829 468.255 268.847C461.785 269.924 455.367 271.348 448.993 272.912C445.533 273.761 442.221 275.207 438.547 275.923C442.759 272.182 447.045 268.522 451.162 264.678C453.877 262.14 456.946 260.376 460.45 259.21C466.684 257.144 472.888 254.982 479.07 252.769C480.214 252.356 481.851 252.489 482.478 250.452C474.592 250.821 467.562 253.713 459.579 255.779C461.881 251.116 463.725 247.08 465.872 243.221C466.47 242.144 467.871 241.376 469.067 240.786C473.242 238.691 477.499 236.757 481.696 234.714C483.216 233.976 484.655 233.076 486.123 232.249C485.953 231.902 485.776 231.548 485.606 231.201C479.882 232.766 474.673 235.769 468.904 237.805C470.011 233.467 471.103 229.504 472.003 225.498C472.386 223.764 473.522 222.812 474.828 221.985C477.167 220.502 479.579 219.145 481.925 217.676C483.061 216.968 484.101 216.112 485.747 214.917C482.796 214.459 481.187 215.972 479.387 216.739C477.521 217.536 475.728 218.495 473.943 219.366C473.589 218.754 473.367 218.481 473.279 218.171C473.19 217.846 473.19 217.477 473.227 217.145C474.275 207.9 475.33 198.662 476.4 189.328C481.497 187.262 486.691 187.594 491.848 187.778C494.297 187.867 495.868 189.682 497.366 191.35C500.376 194.692 503.312 198.094 506.24 201.503C508.653 204.314 511.515 206.461 515.012 207.752C518.745 209.132 522.434 210.608 526.166 211.98C529.479 213.205 531.249 215.301 530.873 219.056C530.667 221.107 530.925 223.203 531.021 225.276C531.271 230.766 529.59 235.474 525.554 239.303C523.415 241.325 521.423 243.501 519.291 245.531C514.496 250.076 511.537 255.654 509.981 262.014C509.243 265.039 508.623 268.094 507.878 271.119C507.244 273.672 506.1 275.93 504.249 277.9C502.331 279.937 500.213 280.394 497.676 279.509C495.883 278.882 494.127 278.077 492.29 277.657L492.275 277.642Z" fill="#efefef"/>
</g>
<defs>
<filter id="filter0_b_7_1789" x="-10" y="-10" width="557" height="516.895" filterUnits="userSpaceOnUse" color-interpolation-filters="sRGB">
<feFlood flood-opacity="0" result="BackgroundImageFix"/>
<feGaussianBlur in="BackgroundImageFix" stdDeviation="5"/>
<feComposite in2="SourceAlpha" operator="in" result="effect1_backgroundBlur_7_1789"/>
<feBlend mode="normal" in="SourceGraphic" in2="effect1_backgroundBlur_7_1789" result="shape"/>
</filter>
</defs>
</svg>
